<?xml version="1.0" encoding="UTF-8"?>
<!DOCTYPE svg PUBLIC "-//W3C//DTD SVG 1.1//EN" "http://www.w3.org/Graphics/SVG/1.1/DTD/svg11.dtd">
<svg version="1.2" viewBox="9529 1965 6149 2506" preserveAspectRatio="xMidYMid" fill-rule="evenodd" stroke-width="28.222" stroke-linejoin="round" xmlns="http://www.w3.org/2000/svg" xmlns:ooo="http://xml.openoffice.org/svg/export" xmlns:xlink="http://www.w3.org/1999/xlink" xmlns:presentation="http://sun.com/xmlns/staroffice/presentation" xmlns:smil="http://www.w3.org/2001/SMIL20/" xmlns:anim="urn:oasis:names:tc:opendocument:xmlns:animation:1.0" xml:space="preserve">
 <defs class="EmbeddedBulletChars">
  <g id="bullet-char-template-57356" transform="scale(0.00048828125,-0.00048828125)">
   <path d="M 580,1141 L 1163,571 580,0 -4,571 580,1141 Z"/>
  </g>
  <g id="bullet-char-template-57354" transform="scale(0.00048828125,-0.00048828125)">
   <path d="M 8,1128 L 1137,1128 1137,0 8,0 8,1128 Z"/>
  </g>
  <g id="bullet-char-template-10146" transform="scale(0.00048828125,-0.00048828125)">
   <path d="M 174,0 L 602,739 174,1481 1456,739 174,0 Z M 1358,739 L 309,1346 659,739 1358,739 Z"/>
  </g>
  <g id="bullet-char-template-10132" transform="scale(0.00048828125,-0.00048828125)">
   <path d="M 2015,739 L 1276,0 717,0 1260,543 174,543 174,936 1260,936 717,1481 1274,1481 2015,739 Z"/>
  </g>
  <g id="bullet-char-template-10007" transform="scale(0.00048828125,-0.00048828125)">
   <path d="M 0,-2 C -7,14 -16,27 -25,37 L 356,567 C 262,823 215,952 215,954 215,979 228,992 255,992 264,992 276,990 289,987 310,991 331,999 354,1012 L 381,999 492,748 772,1049 836,1024 860,1049 C 881,1039 901,1025 922,1006 886,937 835,863 770,784 769,783 710,716 594,584 L 774,223 C 774,196 753,168 711,139 L 727,119 C 717,90 699,76 672,76 641,76 570,178 457,381 L 164,-76 C 142,-110 111,-127 72,-127 30,-127 9,-110 8,-76 1,-67 -2,-52 -2,-32 -2,-23 -1,-13 0,-2 Z"/>
  </g>
  <g id="bullet-char-template-10004" transform="scale(0.00048828125,-0.00048828125)">
   <path d="M 285,-33 C 182,-33 111,30 74,156 52,228 41,333 41,471 41,549 55,616 82,672 116,743 169,778 240,778 293,778 328,747 346,684 L 369,508 C 377,444 397,411 428,410 L 1163,1116 C 1174,1127 1196,1133 1229,1133 1271,1133 1292,1118 1292,1087 L 1292,965 C 1292,929 1282,901 1262,881 L 442,47 C 390,-6 338,-33 285,-33 Z"/>
  </g>
  <g id="bullet-char-template-9679" transform="scale(0.00048828125,-0.00048828125)">
   <path d="M 813,0 C 632,0 489,54 383,161 276,268 223,411 223,592 223,773 276,916 383,1023 489,1130 632,1184 813,1184 992,1184 1136,1130 1245,1023 1353,916 1407,772 1407,592 1407,412 1353,268 1245,161 1136,54 992,0 813,0 Z"/>
  </g>
  <g id="bullet-char-template-8226" transform="scale(0.00048828125,-0.00048828125)">
   <path d="M 346,457 C 273,457 209,483 155,535 101,586 74,649 74,723 74,796 101,859 155,911 209,963 273,989 346,989 419,989 480,963 531,910 582,859 608,796 608,723 608,648 583,586 532,535 482,483 420,457 346,457 Z"/>
  </g>
  <g id="bullet-char-template-8211" transform="scale(0.00048828125,-0.00048828125)">
   <path d="M -4,459 L 1135,459 1135,606 -4,606 -4,459 Z"/>
  </g>
  <g id="bullet-char-template-61548" transform="scale(0.00048828125,-0.00048828125)">
   <path d="M 173,740 C 173,903 231,1043 346,1159 462,1274 601,1332 765,1332 928,1332 1067,1274 1183,1159 1299,1043 1357,903 1357,740 1357,577 1299,437 1183,322 1067,206 928,148 765,148 601,148 462,206 346,322 231,437 173,577 173,740 Z"/>
  </g>
 </defs>
 <g ooo:name="page11" class="Page">
  <g class="Group">
   <g class="com.sun.star.drawing.ClosedBezierShape">
    <g id="id3">
     <rect class="BoundingBox" stroke="none" fill="none" x="9529" y="1968" width="1170" height="1467"/>
     <path fill="rgb(255,255,255)" stroke="none" d="M 9529,3434 C 9568,3251 9605,3074 9639,2900 9652,2826 9666,2749 9680,2670 9695,2591 9708,2512 9720,2435 9733,2356 9744,2281 9754,2207 9763,2134 9771,2067 9776,2007 9806,2010 9840,2011 9878,2011 9916,2011 9951,2014 9984,2019 10023,2019 10063,2019 10102,2019 10100,2024 10099,2034 10096,2048 10093,2063 10090,2080 10086,2100 10082,2121 10078,2143 10073,2168 10069,2193 10064,2218 10058,2243 10048,2301 10036,2366 10023,2438 L 10035,2436 C 10048,2415 10067,2386 10091,2349 10115,2312 10140,2272 10166,2230 10193,2189 10218,2149 10243,2110 10268,2072 10289,2038 10306,2011 10371,2006 10436,2000 10502,1993 10567,1987 10632,1978 10698,1968 10637,2050 10577,2131 10520,2211 10495,2245 10470,2280 10444,2317 10418,2353 10393,2389 10369,2424 10344,2460 10320,2494 10299,2526 10277,2559 10258,2589 10241,2617 10270,2748 10303,2875 10343,2998 10382,3120 10422,3246 10463,3373 10432,3373 10402,3373 10371,3373 10339,3373 10308,3373 10278,3373 10241,3373 10204,3373 10169,3373 10133,3373 10097,3373 10058,3373 10047,3289 10034,3200 10020,3107 10007,3013 9994,2925 9982,2840 L 9947,2881 C 9937,2920 9927,2969 9917,3026 9905,3084 9894,3139 9884,3193 9872,3256 9860,3320 9847,3387 L 9529,3434 Z"/>
    </g>
   </g>
   <g class="com.sun.star.drawing.ClosedBezierShape">
    <g id="id4">
     <rect class="BoundingBox" stroke="none" fill="none" x="10432" y="1986" width="878" height="1448"/>
     <path fill="rgb(255,255,255)" stroke="none" d="M 10432,3433 L 10689,2039 11309,1986 C 11299,2015 11292,2045 11285,2075 11278,2100 11273,2126 11267,2153 11261,2180 11256,2204 11252,2225 11239,2227 11220,2227 11196,2227 11172,2227 11146,2227 11118,2227 11091,2227 11064,2227 11035,2227 11007,2227 10982,2227 10961,2227 L 10893,2580 C 10933,2577 10972,2576 11007,2574 11036,2573 11065,2572 11095,2572 11125,2572 11147,2571 11162,2570 11156,2607 11152,2643 11147,2678 11143,2713 11137,2749 11130,2786 11117,2787 11096,2788 11067,2789 11037,2790 11007,2791 10978,2792 10943,2793 10906,2794 10866,2796 L 10799,3157 11085,3111 11066,3335 10432,3433 Z"/>
    </g>
   </g>
   <g class="com.sun.star.drawing.ClosedBezierShape">
    <g id="id5">
     <rect class="BoundingBox" stroke="none" fill="none" x="11073" y="2010" width="590" height="1420"/>
     <path fill="rgb(255,255,255)" stroke="none" d="M 11394,3392 C 11383,3392 11360,3394 11326,3397 11292,3400 11257,3404 11220,3409 11184,3413 11150,3418 11121,3421 11092,3426 11076,3428 11073,3429 11089,3373 11104,3311 11120,3242 11136,3174 11152,3102 11168,3026 11184,2952 11200,2875 11215,2798 11230,2721 11245,2646 11259,2575 11292,2407 11324,2236 11355,2059 L 11662,2010 C 11628,2185 11593,2357 11559,2525 11545,2597 11530,2672 11515,2749 11500,2826 11486,2903 11472,2979 11458,3054 11445,3128 11431,3199 11417,3270 11405,3335 11394,3392 Z"/>
    </g>
   </g>
   <g class="com.sun.star.drawing.ClosedBezierShape">
    <g id="id6">
     <rect class="BoundingBox" stroke="none" fill="none" x="11559" y="1965" width="1033" height="1514"/>
     <path fill="rgb(255,255,255)" stroke="none" d="M 12544,2685 C 12534,2818 12508,2934 12465,3032 12422,3131 12370,3214 12309,3281 12249,3347 12183,3397 12113,3430 12043,3462 11977,3478 11914,3478 11865,3478 11820,3468 11776,3447 11732,3426 11694,3395 11662,3352 11630,3310 11605,3257 11586,3192 11568,3128 11559,3053 11559,2967 11559,2798 11583,2651 11632,2526 11680,2400 11741,2296 11815,2212 11889,2128 11968,2066 12052,2026 12137,1985 12215,1965 12289,1965 12341,1965 12386,1974 12425,1992 12464,2011 12495,2035 12520,2066 12545,2097 12563,2133 12574,2174 12585,2215 12591,2258 12591,2304 L 12322,2355 C 12310,2303 12294,2265 12275,2243 12255,2221 12233,2210 12208,2210 12175,2210 12139,2233 12100,2279 12061,2326 12024,2386 11991,2459 11957,2532 11928,2613 11904,2700 11880,2788 11868,2874 11865,2959 11865,3040 11877,3098 11901,3132 11926,3167 11957,3184 11994,3184 12021,3184 12048,3178 12076,3165 12104,3152 12129,3133 12151,3109 12173,3085 12192,3057 12207,3025 12222,2993 12230,2958 12232,2920 L 12022,2951 12059,2757 C 12121,2749 12181,2742 12239,2734 12289,2727 12342,2719 12397,2710 12453,2701 12502,2692 12544,2685 Z"/>
    </g>
   </g>
   <g class="com.sun.star.drawing.ClosedBezierShape">
    <g id="id7">
     <rect class="BoundingBox" stroke="none" fill="none" x="12519" y="1966" width="1038" height="1476"/>
     <path fill="rgb(255,255,255)" stroke="none" d="M 13556,2373 C 13556,2480 13545,2581 13522,2676 13499,2771 13469,2858 13431,2937 13393,3016 13349,3086 13299,3148 13248,3210 13196,3263 13141,3307 13086,3351 13030,3384 12974,3407 12918,3430 12864,3441 12813,3441 12770,3441 12731,3433 12695,3417 12660,3400 12630,3376 12603,3345 12577,3312 12557,3271 12542,3221 12527,3170 12519,3110 12519,3039 12519,2966 12528,2889 12546,2808 12565,2727 12589,2646 12621,2567 12652,2487 12691,2411 12737,2339 12782,2267 12833,2204 12888,2148 12943,2093 13002,2049 13064,2016 13127,1983 13192,1967 13260,1967 13319,1967 13368,1979 13406,2004 13445,2028 13475,2059 13497,2098 13518,2136 13534,2179 13543,2228 13552,2276 13556,2324 13556,2373 Z M 12811,2988 C 12811,3003 12814,3018 12819,3033 12824,3049 12831,3063 12840,3075 12850,3087 12861,3097 12875,3105 12889,3113 12903,3118 12919,3118 12978,3118 13030,3097 13076,3057 13122,3017 13160,2967 13190,2908 13220,2849 13243,2787 13260,2720 13276,2653 13284,2593 13284,2537 13284,2522 13283,2505 13281,2487 13279,2468 13275,2451 13269,2436 13263,2420 13254,2407 13242,2395 13230,2384 13213,2379 13192,2379 13150,2379 13111,2389 13076,2410 13041,2431 13009,2459 12981,2493 12953,2528 12928,2567 12907,2611 12887,2655 12868,2699 12853,2744 12838,2789 12828,2833 12821,2876 12815,2920 12811,2957 12811,2988 Z"/>
    </g>
   </g>
   <g class="com.sun.star.drawing.ClosedBezierShape">
    <g id="id8">
     <rect class="BoundingBox" stroke="none" fill="none" x="13441" y="1986" width="878" height="1448"/>
     <path fill="rgb(255,255,255)" stroke="none" d="M 13441,3433 L 13698,2039 14318,1986 C 14308,2015 14301,2045 14294,2075 14287,2100 14282,2126 14276,2153 14270,2180 14265,2204 14261,2225 14248,2227 14229,2227 14205,2227 14181,2227 14155,2227 14127,2227 14100,2227 14073,2227 14044,2227 14016,2227 13991,2227 13970,2227 L 13902,2580 C 13942,2577 13981,2576 14016,2574 14045,2573 14074,2572 14104,2572 14134,2572 14156,2571 14171,2570 14165,2607 14161,2643 14156,2678 14152,2713 14146,2749 14139,2786 14126,2787 14105,2788 14076,2789 14046,2790 14016,2791 13987,2792 13952,2793 13915,2794 13875,2796 L 13808,3157 14094,3111 14075,3335 13441,3433 Z"/>
    </g>
   </g>
   <g class="com.sun.star.drawing.ClosedBezierShape">
    <g id="id9">
     <rect class="BoundingBox" stroke="none" fill="none" x="14101" y="1999" width="993" height="1443"/>
     <path fill="rgb(255,255,255)" stroke="none" d="M 15092,2429 C 15092,2497 15082,2570 15062,2646 15043,2722 15015,2798 14980,2873 14944,2949 14901,3021 14849,3089 14798,3158 14739,3218 14674,3269 14608,3321 14537,3362 14459,3394 14381,3425 14298,3441 14211,3441 14192,3441 14174,3440 14156,3438 14138,3436 14119,3433 14101,3431 14136,3251 14171,3075 14205,2904 14218,2832 14232,2757 14246,2679 14261,2601 14274,2525 14287,2449 14300,2373 14313,2300 14326,2231 14338,2162 14348,2099 14356,2043 14412,2033 14469,2023 14527,2014 14584,2005 14643,2000 14703,2000 14774,2000 14834,2011 14882,2033 14931,2055 14972,2086 15002,2125 15033,2164 15056,2211 15070,2263 15085,2315 15092,2370 15092,2429 Z M 14629,2276 C 14614,2354 14599,2427 14584,2498 14568,2569 14552,2640 14536,2712 14521,2784 14505,2859 14489,2937 14473,3015 14458,3101 14444,3194 14476,3173 14506,3145 14535,3109 14565,3073 14593,3031 14619,2984 14645,2937 14669,2887 14690,2835 14712,2783 14730,2732 14746,2682 14762,2633 14774,2586 14782,2543 14791,2500 14795,2463 14795,2432 14795,2383 14782,2345 14755,2318 14728,2290 14686,2276 14629,2276 Z"/>
    </g>
   </g>
   <g class="com.sun.star.drawing.ClosedBezierShape">
    <g id="id10">
     <rect class="BoundingBox" stroke="none" fill="none" x="14906" y="1969" width="772" height="1511"/>
     <path fill="rgb(255,255,255)" stroke="none" d="M 15310,2969 C 15272,2969 15234,2970 15196,2973 15159,2976 15120,2978 15082,2980 15123,2820 15163,2660 15201,2501 15240,2341 15280,2181 15322,2020 15347,2016 15375,2012 15407,2008 15439,2004 15471,2000 15504,1995 15537,1989 15569,1985 15599,1981 15630,1977 15656,1973 15677,1969 15606,2133 15542,2300 15484,2466 15425,2633 15368,2800 15310,2969 Z M 15330,3277 C 15330,3301 15324,3327 15313,3351 15302,3376 15286,3398 15265,3417 15244,3436 15218,3451 15187,3462 15155,3473 15119,3479 15079,3479 15051,3479 15026,3473 15004,3463 14982,3452 14964,3438 14950,3421 14937,3403 14926,3383 14918,3361 14910,3339 14906,3316 14906,3294 14906,3270 14910,3245 14918,3223 14926,3200 14938,3180 14954,3162 14970,3144 14991,3130 15015,3118 15039,3106 15068,3100 15102,3100 15178,3100 15235,3118 15273,3154 15311,3190 15330,3231 15330,3277 Z"/>
    </g>
   </g>
  </g>
  <g class="Group">
   <g class="com.sun.star.drawing.ClosedBezierShape">
    <g id="id11">
     <rect class="BoundingBox" stroke="none" fill="none" x="11071" y="4084" width="277" height="387"/>
     <path fill="rgb(255,255,255)" stroke="none" d="M 11347,4258 C 11347,4288 11342,4314 11332,4337 11322,4359 11309,4377 11291,4390 L 11345,4432 11303,4470 11234,4415 C 11226,4416 11218,4417 11209,4417 11189,4417 11170,4413 11153,4406 11137,4398 11122,4388 11110,4374 11098,4361 11088,4344 11081,4324 11074,4305 11071,4282 11071,4258 L 11071,4243 C 11071,4219 11074,4197 11081,4177 11088,4157 11097,4140 11109,4127 11122,4113 11136,4102 11153,4095 11170,4088 11189,4084 11209,4084 11229,4084 11248,4088 11265,4095 11281,4102 11296,4113 11308,4127 11320,4140 11330,4157 11337,4177 11343,4197 11347,4219 11347,4243 L 11347,4258 Z M 11279,4243 C 11279,4209 11273,4183 11261,4166 11249,4148 11231,4139 11209,4139 11186,4139 11169,4148 11157,4166 11145,4183 11139,4209 11139,4243 L 11139,4258 C 11139,4275 11140,4290 11143,4302 11147,4315 11151,4326 11157,4335 11163,4344 11171,4351 11179,4355 11188,4360 11198,4362 11209,4362 11232,4362 11249,4353 11261,4335 11273,4317 11279,4292 11279,4258 L 11279,4243 Z"/>
    </g>
   </g>
   <g class="com.sun.star.drawing.ClosedBezierShape">
    <g id="id12">
     <rect class="BoundingBox" stroke="none" fill="none" x="11505" y="4089" width="250" height="329"/>
     <path fill="rgb(255,255,255)" stroke="none" d="M 11754,4089 L 11754,4303 C 11754,4321 11751,4338 11745,4352 11739,4367 11730,4379 11719,4388 11708,4398 11695,4405 11680,4410 11665,4415 11648,4417 11630,4417 11612,4417 11595,4415 11580,4410 11565,4405 11552,4398 11541,4388 11530,4379 11521,4367 11515,4352 11509,4338 11506,4321 11506,4303 L 11506,4089 11573,4089 11573,4303 C 11573,4324 11578,4339 11588,4349 11598,4359 11612,4364 11630,4364 11648,4364 11662,4359 11672,4349 11682,4339 11687,4324 11687,4303 L 11687,4089 11754,4089 Z"/>
    </g>
   </g>
   <g class="com.sun.star.drawing.ClosedBezierShape">
    <g id="id13">
     <rect class="BoundingBox" stroke="none" fill="none" x="11927" y="4089" width="68" height="325"/>
     <path fill="rgb(255,255,255)" stroke="none" d="M 11994,4413 C 11971,4413 11949,4413 11927,4413 11927,4305 11927,4197 11927,4089 11949,4089 11971,4089 11994,4089 11994,4197 11994,4305 11994,4413 Z"/>
    </g>
   </g>
   <g class="com.sun.star.drawing.ClosedBezierShape">
    <g id="id14">
     <rect class="BoundingBox" stroke="none" fill="none" x="12157" y="4089" width="248" height="325"/>
     <path fill="rgb(255,255,255)" stroke="none" d="M 12240,4359 C 12295,4359 12349,4359 12404,4359 12404,4377 12404,4395 12404,4413 12321,4413 12239,4413 12157,4413 12157,4400 12157,4387 12157,4374 12210,4297 12264,4220 12317,4143 12264,4143 12210,4143 12157,4143 12157,4125 12157,4107 12157,4089 12238,4089 12319,4089 12400,4089 12400,4102 12400,4115 12400,4127 12347,4205 12294,4282 12240,4359 Z"/>
    </g>
   </g>
   <g class="com.sun.star.drawing.ClosedBezierShape">
    <g id="id15">
     <rect class="BoundingBox" stroke="none" fill="none" x="12542" y="4071" width="73" height="118"/>
     <path fill="rgb(255,255,255)" stroke="none" d="M 12613,4105 C 12613,4113 12612,4120 12610,4128 12608,4136 12605,4143 12601,4151 12597,4158 12593,4165 12588,4171 12583,4178 12578,4183 12572,4188 L 12542,4171 C 12545,4166 12547,4162 12550,4157 12552,4152 12554,4147 12556,4142 12558,4137 12559,4131 12560,4125 12561,4119 12562,4112 12562,4105 L 12562,4071 12613,4071 12613,4105 Z"/>
    </g>
   </g>
   <g class="com.sun.star.drawing.ClosedBezierShape">
    <g id="id16">
     <rect class="BoundingBox" stroke="none" fill="none" x="12743" y="4089" width="266" height="325"/>
     <path fill="rgb(255,255,255)" stroke="none" d="M 13007,4143 C 12974,4143 12941,4143 12907,4143 12907,4233 12907,4323 12907,4413 12885,4413 12863,4413 12841,4413 12841,4323 12841,4233 12841,4143 12808,4143 12776,4143 12743,4143 12743,4125 12743,4107 12743,4089 12831,4089 12919,4089 13007,4089 13007,4107 13007,4125 13007,4143 Z"/>
    </g>
   </g>
   <g class="com.sun.star.drawing.ClosedBezierShape">
    <g id="id17">
     <rect class="BoundingBox" stroke="none" fill="none" x="13142" y="4089" width="249" height="329"/>
     <path fill="rgb(255,255,255)" stroke="none" d="M 13390,4089 L 13390,4303 C 13390,4321 13387,4338 13381,4352 13375,4367 13366,4379 13355,4388 13344,4398 13331,4405 13316,4410 13301,4415 13284,4417 13266,4417 13248,4417 13231,4415 13216,4410 13201,4405 13188,4398 13177,4388 13166,4379 13157,4367 13151,4352 13145,4338 13142,4321 13142,4303 L 13142,4089 13209,4089 13209,4303 C 13209,4324 13214,4339 13224,4349 13234,4359 13248,4364 13266,4364 13284,4364 13298,4359 13308,4349 13318,4339 13323,4324 13323,4303 L 13323,4089 13390,4089 Z"/>
    </g>
   </g>
   <g class="com.sun.star.drawing.ClosedBezierShape">
    <g id="id18">
     <rect class="BoundingBox" stroke="none" fill="none" x="13526" y="4089" width="265" height="325"/>
     <path fill="rgb(255,255,255)" stroke="none" d="M 13790,4143 C 13757,4143 13724,4143 13690,4143 13690,4233 13690,4323 13690,4413 13668,4413 13646,4413 13624,4413 13624,4323 13624,4233 13624,4143 13591,4143 13559,4143 13526,4143 13526,4125 13526,4107 13526,4089 13614,4089 13702,4089 13790,4089 13790,4107 13790,4125 13790,4143 Z"/>
    </g>
   </g>
  </g>
 </g>
</svg>